<svg width="156" height="60" viewBox="0 0 156 60" fill="none" xmlns="http://www.w3.org/2000/svg">
<path d="M25.6977 21.6764C31.6513 21.6764 34.6386 23.9137 35.0228 28.1773H31.1177C30.755 25.7923 28.8986 24.8635 25.6977 24.8635C21.7926 24.8635 20.1495 26.2354 20.1495 29.2536C20.1495 32.2929 21.814 33.686 25.6977 33.686C28.8771 33.686 30.755 32.7362 31.1177 30.3302H35.0228C34.6386 34.6146 31.6513 36.873 25.6977 36.873C19.1253 36.873 16.3086 34.1715 16.3086 29.2536C16.3086 24.3569 19.1253 21.6764 25.6977 21.6764Z" fill="#23662F"/>
<path d="M56.2553 21.8876V36.6621H52.4144V30.8789H40.2511V36.6621H36.4102V21.8876H40.2511V27.6708H52.4144V21.8876H56.2553Z" fill="#23662F"/>
<path d="M61.8019 36.6621H57.9609V21.8876H61.8019V36.6621Z" fill="#23662F"/>
<path d="M67.3488 29.5282H74.1772C75.3294 29.5282 77.122 29.5282 77.122 27.312C77.122 25.0748 75.3294 25.0748 74.1772 25.0748H67.3488V29.5282ZM77.7194 32.272L80.4721 36.6621H75.9484L73.537 32.7153H67.3488V36.6621H63.5078V21.8878H75.2442C78.6372 21.8878 80.963 24.0195 80.963 27.312C80.963 29.7182 79.7252 31.4911 77.7194 32.272Z" fill="#23662F"/>
<path d="M94.618 30.6891L91.5879 24.6948L88.5364 30.6891H94.618ZM96.0477 33.5173H87.1067L85.5062 36.6621H81.2812L88.9846 21.8878H94.1698L101.894 36.6621H97.648L96.0477 33.5173Z" fill="#23662F"/>
<path d="M122.743 36.6621H118.902V21.8876H122.743V36.6621Z" fill="#23662F"/>
<path d="M139.813 33.4751V36.6621H124.449V21.8876H128.29V33.4751H139.813Z" fill="#23662F"/>
<path d="M23.4441 45.9063L21.7528 42.5605L20.0496 45.9063H23.4441ZM24.2422 47.485H19.2515L18.3583 49.2402H16L20.2997 40.9936H23.194L27.5056 49.2402H25.1354L24.2422 47.485Z" fill="#90B725"/>
<path d="M32.0988 44.8238H37.3871V49.2417H35.8031L35.7077 47.9457C34.9216 48.794 33.6711 49.3594 31.8963 49.3594C28.8233 49.3594 26.9414 47.8515 26.9414 45.1183C26.9414 42.3852 28.8233 40.8771 32.2537 40.8771C35.5887 40.8771 37.2562 42.1614 37.3871 44.2111H35.2074C35.0884 43.5868 34.5166 42.6561 32.2537 42.6561C29.4665 42.6561 29.0853 44.1758 29.0853 45.1653C29.0853 46.1669 29.4784 47.7218 32.2537 47.7218C34.326 47.7218 35.1598 46.8266 35.2074 46.2022H32.0988V44.8238Z" fill="#90B725"/>
<path d="M40.3666 45.2602H44.178C44.8212 45.2602 45.8217 45.2602 45.8217 44.0233C45.8217 42.7744 44.8212 42.7744 44.178 42.7744H40.3666V45.2602ZM46.1551 46.7916L47.6917 49.2422H45.1665L43.8208 47.0392H40.3666V49.2422H38.2227V40.9956H44.7736C46.6672 40.9956 47.9656 42.1854 47.9656 44.0233C47.9656 45.3662 47.2747 46.3559 46.1551 46.7916Z" fill="#90B725"/>
<path d="M56.8843 45.1065C56.8843 43.4336 56.0267 42.6561 53.7876 42.6561C51.5484 42.6561 50.6908 43.4219 50.6908 45.1065C50.6908 46.8029 51.5603 47.5804 53.7876 47.5804C56.0148 47.5804 56.8843 46.7911 56.8843 45.1065ZM48.5469 45.1065C48.5469 42.3732 50.1192 40.8771 53.7876 40.8771C57.444 40.8771 59.0282 42.385 59.0282 45.1065C59.0282 47.8397 57.444 49.3594 53.7876 49.3594C50.1192 49.3594 48.5469 47.8515 48.5469 45.1065Z" fill="#90B725"/>
<path d="M68.4035 44.8238H73.6917V49.2417H72.1078L72.0124 47.9457C71.2263 48.794 69.9758 49.3594 68.201 49.3594C65.128 49.3594 63.2461 47.8515 63.2461 45.1183C63.2461 42.3852 65.128 40.8771 68.5584 40.8771C71.8934 40.8771 73.5608 42.1614 73.6917 44.2111H71.5121C71.3931 43.5868 70.8213 42.6561 68.5584 42.6561C65.7712 42.6561 65.39 44.1758 65.39 45.1653C65.39 46.1669 65.7831 47.7218 68.5584 47.7218C70.6307 47.7218 71.4645 46.8266 71.5121 46.2022H68.4035V44.8238Z" fill="#90B725"/>
<path d="M81.8464 45.9063L80.1551 42.5605L78.452 45.9063H81.8464ZM82.6444 47.485H77.6538L76.7607 49.2402H74.4023L78.7021 40.9936H81.5963L85.9079 49.2402H83.5377L82.6444 47.485Z" fill="#90B725"/>
<path d="M88.5658 45.2602H92.3772C93.0204 45.2602 94.0209 45.2602 94.0209 44.0233C94.0209 42.7744 93.0204 42.7744 92.3772 42.7744H88.5658V45.2602ZM94.3543 46.7916L95.8909 49.2422H93.3657L92.02 47.0392H88.5658V49.2422H86.4219V40.9956H92.9728C94.8664 40.9956 96.1648 42.1854 96.1648 44.0233C96.1648 45.3662 95.474 46.3559 94.3543 46.7916Z" fill="#90B725"/>
<path d="M104.823 45.117C104.823 43.1142 103.728 42.7726 102.108 42.7726H99.0111V47.4614H102.108C103.728 47.4614 104.823 47.1199 104.823 45.117ZM106.967 45.117C106.967 47.9209 105.074 49.2402 102.918 49.2402H96.8672V40.9938H102.918C105.074 40.9938 106.967 42.3132 106.967 45.117Z" fill="#90B725"/>
<path d="M109.882 42.6802V44.3531H116.552V45.8847H109.882V47.5576H116.552V49.2422H107.738V40.9956H116.552V42.6802H109.882Z" fill="#90B725"/>
<path d="M128.071 40.9936V49.2402H125.153L119.472 43.0553V49.2402H117.328V40.9936H120.234L125.928 47.1903V40.9936H128.071Z" fill="#90B725"/>
<path d="M130.917 46.4023C130.917 47.2741 131.632 47.6745 134.348 47.6745C136.599 47.6745 137.278 47.4271 137.278 46.7794C137.278 46.096 136.801 45.9781 134.097 45.8487C130.465 45.6837 129.024 45.1183 129.024 43.2686C129.024 41.4543 130.894 40.8771 134.014 40.8771C137.158 40.8771 139.064 41.6546 139.064 43.6926H136.92C136.92 42.7856 136.003 42.5618 133.776 42.5618C131.668 42.5618 131.167 42.7621 131.167 43.3746C131.167 44.0108 131.668 44.1285 134.097 44.27C137.385 44.4467 139.422 44.6233 139.422 46.7085C139.422 48.9117 137.313 49.3594 134.229 49.3594C130.81 49.3594 128.773 48.782 128.773 46.4023H130.917Z" fill="#90B725"/>
<path fill-rule="evenodd" clip-rule="evenodd" d="M105.493 3.72996C106.489 1.68023 107.542 0.144202 107.675 0.000855446C107.784 0.183086 109.374 2.26728 110.136 4.60181C110.868 6.83923 111.304 9.76942 109.233 11.0352C109.15 10.8058 107.549 7.28335 107.55 7.2844C107.506 7.35565 105.712 10.8752 105.582 11.0251C103.772 8.56947 104.534 5.70339 105.493 3.72996Z" fill="#90B725"/>
<path fill-rule="evenodd" clip-rule="evenodd" d="M85.1575 14.4971C84.6082 12.9478 84.353 11.6325 84.3477 11.4919C84.4968 11.5295 86.3836 11.7914 87.9774 12.5977C89.5055 13.3705 91.2403 14.6461 90.8363 16.3373C90.6761 16.2625 88.0409 15.2723 88.0424 15.2727C88.0562 15.3309 88.957 18.0331 88.9676 18.1758C86.7765 17.8359 85.6866 15.9884 85.1575 14.4971Z" fill="#90B725"/>
<path fill-rule="evenodd" clip-rule="evenodd" d="M127.844 12.3966C129.411 11.8533 130.74 11.6008 130.882 11.595C130.844 11.7431 130.579 13.6092 129.765 15.1858C128.983 16.6972 127.694 18.4129 125.983 18.0136C126.059 17.8545 127.06 15.2486 127.06 15.2497C127.001 15.2635 124.269 16.1543 124.125 16.165C124.469 13.998 126.336 12.9198 127.844 12.3966Z" fill="#90B725"/>
<path fill-rule="evenodd" clip-rule="evenodd" d="M91.5372 10.9176C90.599 8.26948 90.1623 6.02134 90.1523 5.78088C90.4084 5.84583 93.6331 6.29247 96.3586 7.67108C98.9694 8.99167 101.934 11.1723 101.244 14.0632C100.969 13.9352 96.4664 12.2426 96.4676 12.2432C96.4921 12.3433 98.0308 16.9621 98.0497 17.2051C94.3052 16.6243 92.4416 13.4665 91.5372 10.9176Z" fill="#90B725"/>
<path fill-rule="evenodd" clip-rule="evenodd" d="M119.88 7.32598C122.557 6.39738 124.83 5.96608 125.073 5.95599C125.008 6.20906 124.556 9.39883 123.163 12.0942C121.827 14.6772 119.623 17.6097 116.7 16.927C116.829 16.6553 118.54 12.2012 118.54 12.2027C118.439 12.2269 113.769 13.749 113.523 13.7675C114.111 10.0634 117.303 8.22032 119.88 7.32598Z" fill="#90B725"/>
<path fill-rule="evenodd" clip-rule="evenodd" d="M108.717 25.6525C110.919 21.9421 114.605 21.0803 117.681 20.1225C118.061 20.0046 118.895 19.9239 119.21 19.6652C111.779 25.8257 108.728 28.9221 106.826 37.0653C106.499 38.465 106.026 30.1868 108.717 25.6525Z" fill="#23662F"/>
<path fill-rule="evenodd" clip-rule="evenodd" d="M104.601 23.0533C103.106 20.5336 100.604 19.9485 98.5142 19.2982C98.2571 19.2181 97.6901 19.1632 97.4766 18.9877C102.563 23.2045 104.601 25.3057 105.886 30.8033C106.109 31.754 106.429 26.1323 104.601 23.0533Z" fill="#23662F"/>
<path fill-rule="evenodd" clip-rule="evenodd" d="M105.172 19.6648C105.172 21.0236 106.285 22.125 107.659 22.125C109.032 22.125 110.146 21.0236 110.146 19.6648C110.146 18.3064 109.032 17.205 107.659 17.205C106.285 17.205 105.172 18.3064 105.172 19.6648Z" fill="#23662F"/>
<path d="M16.3047 58.2081L16.6226 58.0235C16.7885 58.5976 17.279 58.9872 18.0737 58.9872C18.8823 58.9872 19.2901 58.5772 19.2901 58.0305C19.2901 57.4563 18.7786 57.2374 18.0393 57.0052C17.2308 56.7454 16.5051 56.5197 16.5051 55.6859C16.5051 54.8998 17.1477 54.401 17.97 54.401C18.7648 54.401 19.2901 54.8521 19.5249 55.4057L19.214 55.5766C19.0342 55.1459 18.6611 54.7495 17.97 54.7495C17.2998 54.7495 16.8782 55.139 16.8782 55.6722C16.8782 56.2464 17.3689 56.424 18.0599 56.6496C18.9167 56.9299 19.6632 57.1965 19.6632 58.0235C19.6632 58.8164 19.0342 59.3359 18.0737 59.3359C17.1685 59.3359 16.5259 58.8849 16.3047 58.2081Z" fill="#231F20"/>
<path d="M24.0741 58.918V59.2598H21.2891V54.4751H24.0394V54.8169H21.6554V56.6762H23.8669V57.0177H21.6554V58.918H24.0741Z" fill="#231F20"/>
<path d="M28.5155 58.918V59.2598H25.7305V54.4751H28.4809V54.8169H26.0968V56.6762H28.3081V57.0177H26.0968V58.918H28.5155Z" fill="#231F20"/>
<path d="M33.9145 56.8674C33.9145 55.7329 33.1336 54.8169 31.9933 54.8169H30.5421V58.918H31.9933C33.1336 58.918 33.9145 58.002 33.9145 56.8674ZM34.2738 56.8674C34.2738 58.1866 33.3269 59.2598 31.9933 59.2598H30.1758V54.4751H31.9933C33.3269 54.4751 34.2738 55.5483 34.2738 56.8674Z" fill="#231F20"/>
<path d="M38.6037 58.918V59.2598H35.957V54.4751H36.3232V58.918H38.6037Z" fill="#231F20"/>
<path d="M40.4911 59.2598H40.125V54.4751H40.4911V59.2598Z" fill="#231F20"/>
<path d="M45.9983 54.4751V59.2598H45.6736L42.8195 55.145V59.2598H42.4531V54.4751H42.771L45.6319 58.5899V54.4751H45.9983Z" fill="#231F20"/>
<path d="M52.5624 57.2171C52.5624 58.3722 51.6709 59.3359 50.2266 59.3359C48.727 59.3359 47.6836 58.2354 47.6836 56.8684C47.6836 55.5013 48.727 54.401 50.199 54.401C51.0974 54.401 51.8783 54.8657 52.2791 55.5562L51.9542 55.7474C51.6363 55.1461 50.9591 54.7497 50.199 54.7497C48.9276 54.7497 48.0499 55.6928 48.0499 56.8684C48.0499 58.0441 48.9276 58.9875 50.2266 58.9875C51.4015 58.9875 52.1132 58.2697 52.1892 57.3743H50.1367V57.0325H52.5624V57.2171Z" fill="#231F20"/>
<path d="M59.5624 55.9584C59.5624 55.2955 59.0855 54.8169 58.4221 54.8169H57.1437V57.093H58.4221C59.0855 57.093 59.5624 56.6146 59.5624 55.9584ZM59.9287 55.9584C59.9287 56.7991 59.2929 57.4347 58.4221 57.4347H57.1437V59.2598H56.7773V54.4751H58.4221C59.2929 54.4751 59.9287 55.1109 59.9287 55.9584Z" fill="#231F20"/>
<path d="M61.9601 56.9563H63.5012C64.0885 56.9563 64.5654 56.478 64.5654 55.8901C64.5654 55.2955 64.0885 54.8171 63.5012 54.8171H61.9601V56.9563ZM63.4873 57.2981H61.9601V59.2598H61.5938V54.4751H63.5012C64.2889 54.4751 64.9315 55.1109 64.9315 55.8901C64.9315 56.5393 64.4825 57.0862 63.8673 57.2502L65.0698 59.2598H64.6482L63.4873 57.2981Z" fill="#231F20"/>
<path d="M70.9357 56.8684C70.9357 55.6928 70.0028 54.7495 68.8073 54.7495C67.6117 54.7495 66.6789 55.6928 66.6789 56.8684C66.6789 58.0441 67.6117 58.9872 68.8073 58.9872C70.0028 58.9872 70.9357 58.0441 70.9357 56.8684ZM66.3125 56.8684C66.3125 55.5013 67.4113 54.401 68.8073 54.401C70.2032 54.401 71.302 55.5013 71.302 56.8684C71.302 58.2354 70.2032 59.3359 68.8073 59.3359C67.4113 59.3359 66.3125 58.2354 66.3125 56.8684Z" fill="#231F20"/>
<path d="M76.7268 56.8674C76.7268 55.7329 75.9461 54.8169 74.8058 54.8169H73.3546V58.918H74.8058C75.9461 58.918 76.7268 58.002 76.7268 56.8674ZM77.0861 56.8674C77.0861 58.1866 76.1394 59.2598 74.8058 59.2598H72.9883V54.4751H74.8058C76.1394 54.4751 77.0861 55.5483 77.0861 56.8674Z" fill="#231F20"/>
<path d="M78.668 57.6614V54.476H79.0343V57.6614C79.0343 58.4405 79.525 58.9875 80.437 58.9875C81.3561 58.9875 81.8468 58.4405 81.8468 57.6614V54.476H82.2131V57.6614C82.2131 58.673 81.5012 59.3359 80.437 59.3359C79.3728 59.3359 78.668 58.673 78.668 57.6614Z" fill="#231F20"/>
<path d="M83.8281 56.8684C83.8281 55.5013 84.8717 54.401 86.3435 54.401C87.2351 54.401 88.0159 54.8521 88.4166 55.5492L88.0919 55.7338C87.774 55.1459 87.1038 54.7495 86.3435 54.7495C85.0721 54.7495 84.1945 55.6928 84.1945 56.8684C84.1945 58.0441 85.0721 58.9872 86.3435 58.9872C87.1106 58.9872 87.7878 58.5841 88.1058 57.9826L88.4307 58.1671C88.0367 58.871 87.249 59.3359 86.3435 59.3359C84.8717 59.3359 83.8281 58.2354 83.8281 56.8684Z" fill="#231F20"/>
<path d="M92.9568 54.8169H91.4366V59.2598H91.0634V54.8169H89.543V54.4751H92.9568V54.8169Z" fill="#231F20"/>
<path d="M94.8429 59.2598H94.4766V54.4751H94.8429V59.2598Z" fill="#231F20"/>
<path d="M101.154 56.8684C101.154 55.6928 100.221 54.7495 99.026 54.7495C97.8305 54.7495 96.8974 55.6928 96.8974 56.8684C96.8974 58.0441 97.8305 58.9872 99.026 58.9872C100.221 58.9872 101.154 58.0441 101.154 56.8684ZM96.5312 56.8684C96.5312 55.5013 97.6301 54.401 99.026 54.401C100.422 54.401 101.521 55.5013 101.521 56.8684C101.521 58.2354 100.422 59.3359 99.026 59.3359C97.6301 59.3359 96.5312 58.2354 96.5312 56.8684Z" fill="#231F20"/>
<path d="M106.748 54.4751V59.2598H106.424L103.569 55.145V59.2598H103.203V54.4751H103.521L106.382 58.5899V54.4751H106.748Z" fill="#231F20"/>
<path d="M110.973 56.8684C110.973 55.5013 112.016 54.401 113.488 54.401C114.379 54.401 115.16 54.8521 115.561 55.5492L115.236 55.7338C114.919 55.1459 114.248 54.7495 113.488 54.7495C112.217 54.7495 111.339 55.6928 111.339 56.8684C111.339 58.0441 112.217 58.9872 113.488 58.9872C114.255 58.9872 114.932 58.5841 115.25 57.9826L115.575 58.1671C115.181 58.871 114.393 59.3359 113.488 59.3359C112.016 59.3359 110.973 58.2354 110.973 56.8684Z" fill="#231F20"/>
<path d="M119.984 58.918V59.2598H117.199V54.4751H119.95V54.8169H117.565V56.6762H119.777V57.0177H117.565V58.918H119.984Z" fill="#231F20"/>
<path d="M125.186 54.4751V59.2598H124.861L122.007 55.145V59.2598H121.641V54.4751H121.959L124.819 58.5899V54.4751H125.186Z" fill="#231F20"/>
<path d="M130.121 54.8169H128.601V59.2598H128.227V54.8169H126.707V54.4751H130.121V54.8169Z" fill="#231F20"/>
<path d="M132.007 56.9563H133.548C134.135 56.9563 134.612 56.478 134.612 55.8901C134.612 55.2955 134.135 54.8171 133.548 54.8171H132.007V56.9563ZM133.534 57.2981H132.007V59.2598H131.641V54.4751H133.548C134.336 54.4751 134.979 55.1109 134.979 55.8901C134.979 56.5393 134.529 57.0862 133.914 57.2502L135.117 59.2598H134.695L133.534 57.2981Z" fill="#231F20"/>
<path d="M139.422 58.918V59.2598H136.637V54.4751H139.387V54.8169H137.003V56.6762H139.214V57.0177H137.003V58.918H139.422Z" fill="#231F20"/>
</svg>
